<svg width="30" height="53" viewBox="0 0 30 53" fill="none" xmlns="http://www.w3.org/2000/svg">
<g filter="url(#filter0_d_12_7)">
<path d="M21.4 14.296H15.88V37H11.512V14.296H8.104V10.696H11.512V8.824C11.512 5.88 12.264 3.736 13.768 2.392C15.304 1.016 17.752 0.327997 21.112 0.327997V3.976C19.192 3.976 17.832 4.36 17.032 5.128C16.264 5.864 15.88 7.096 15.88 8.824V10.696H21.4V14.296Z" fill="#0D5178" shape-rendering="crispEdges"/>
<path d="M21.4 14.296V15.296H22.4V14.296H21.4ZM15.88 14.296V13.296H14.88V14.296H15.88ZM15.88 37V38H16.88V37H15.88ZM11.512 37H10.512V38H11.512V37ZM11.512 14.296H12.512V13.296H11.512V14.296ZM8.104 14.296H7.104V15.296H8.104V14.296ZM8.104 10.696V9.696H7.104V10.696H8.104ZM11.512 10.696V11.696H12.512V10.696H11.512ZM13.768 2.392L14.4343 3.13766L14.4352 3.13683L13.768 2.392ZM21.112 0.327997H22.112V-0.672003H21.112V0.327997ZM21.112 3.976V4.976H22.112V3.976H21.112ZM17.032 5.128L17.7239 5.84999L17.7245 5.84939L17.032 5.128ZM15.88 10.696H14.88V11.696H15.88V10.696ZM21.4 10.696H22.4V9.696H21.4V10.696ZM21.4 13.296H15.88V15.296H21.4V13.296ZM14.88 14.296V37H16.88V14.296H14.88ZM15.88 36H11.512V38H15.88V36ZM12.512 37V14.296H10.512V37H12.512ZM11.512 13.296H8.104V15.296H11.512V13.296ZM9.104 14.296V10.696H7.104V14.296H9.104ZM8.104 11.696H11.512V9.696H8.104V11.696ZM12.512 10.696V8.824H10.512V10.696H12.512ZM12.512 8.824C12.512 6.03165 13.2249 4.2184 14.4343 3.13766L13.1017 1.64634C11.3031 3.2536 10.512 5.72835 10.512 8.824H12.512ZM14.4352 3.13683C15.7025 2.00159 17.8526 1.328 21.112 1.328V-0.672003C17.6514 -0.672003 14.9055 0.030404 13.1008 1.64716L14.4352 3.13683ZM20.112 0.327997V3.976H22.112V0.327997H20.112ZM21.112 2.976C19.1083 2.976 17.4219 3.36746 16.3395 4.40661L17.7245 5.84939C18.2421 5.35253 19.2757 4.976 21.112 4.976V2.976ZM16.3401 4.40601C15.2821 5.41992 14.88 6.98722 14.88 8.824H16.88C16.88 7.20478 17.2459 6.30808 17.7239 5.84999L16.3401 4.40601ZM14.88 8.824V10.696H16.88V8.824H14.88ZM15.88 11.696H21.4V9.696H15.88V11.696ZM20.4 10.696V14.296H22.4V10.696H20.4Z" fill="#FFFDFD" fill-opacity="0.16"/>
</g>
<defs>
<filter id="filter0_d_12_7" x="0.104004" y="0.328003" width="29.296" height="52.672" filterUnits="userSpaceOnUse" color-interpolation-filters="sRGB">
<feFlood flood-opacity="0" result="BackgroundImageFix"/>
<feColorMatrix in="SourceAlpha" type="matrix" values="0 0 0 0 0 0 0 0 0 0 0 0 0 0 0 0 0 0 127 0" result="hardAlpha"/>
<feOffset dy="8"/>
<feGaussianBlur stdDeviation="4"/>
<feComposite in2="hardAlpha" operator="out"/>
<feColorMatrix type="matrix" values="0 0 0 0 0 0 0 0 0 0 0 0 0 0 0 0 0 0 0.25 0"/>
<feBlend mode="normal" in2="BackgroundImageFix" result="effect1_dropShadow_12_7"/>
<feBlend mode="normal" in="SourceGraphic" in2="effect1_dropShadow_12_7" result="shape"/>
</filter>
</defs>
</svg>
